Coordinates
version=1
nRows=21
nColumns=12
inDegrees=yes

Units are S.I. units (second, meters, Newtons, ...)
Angles are in degrees

endheader
time	SC_y	SC_z	SC_x	AC_y	AC_z	AC_x	GH_y	GH_z	GH_yy	EL_x	PS_y
       0.0              -31.09          6.123          31.86          66.31          4.816          -6.31         -126.9          83.01         -170.5          69.32          133.3
   0.02383              -31.09          6.127          31.87           66.3          4.813         -6.311         -126.9          83.01         -170.5          69.33          133.3
   0.04765               -31.1          6.131          31.87           66.3          4.809         -6.311         -126.8           83.0         -170.5          69.34          133.3
   0.07148               -31.1          6.135          31.87           66.3          4.805         -6.311         -126.8          82.99         -170.4          69.35          133.3
    0.0953              -31.11           6.14          31.87           66.3          4.801         -6.311         -126.7          82.99         -170.4          69.36          133.3
    0.1191              -31.11          6.145          31.88           66.3          4.797         -6.311         -126.7          82.98         -170.4          69.37          133.3
     0.143              -31.12           6.15          31.88          66.29          4.792         -6.312         -126.6          82.97         -170.3          69.38          133.3
    0.1668              -31.12          6.155          31.88          66.29          4.787         -6.312         -126.6          82.96         -170.3          69.39          133.3
    0.1906              -31.13          6.161          31.89          66.29          4.782         -6.312         -126.5          82.95         -170.2          69.41          133.3
    0.2144              -31.14          6.167          31.89          66.29          4.776         -6.312         -126.4          82.95         -170.2          69.42          133.3
    0.2383              -31.14          6.174           31.9          66.28           4.77         -6.313         -126.3          82.94         -170.2          69.44          133.3
    0.2621              -31.15          6.181           31.9          66.28          4.763         -6.313         -126.3          82.92         -170.1          69.45          133.3
    0.2859              -31.16          6.189           31.9          66.28          4.756         -6.313         -126.2          82.91         -170.0          69.47          133.3
    0.3097              -31.17          6.198          31.91          66.27          4.748         -6.314         -126.1           82.9         -170.0          69.49          133.3
    0.3336              -31.18          6.207          31.92          66.27           4.74         -6.314         -126.0          82.89         -169.9          69.51          133.3
    0.3574              -31.19          6.217          31.92          66.26          4.731         -6.315         -125.9          82.87         -169.8          69.53          133.3
    0.3812               -31.2          6.227          31.93          66.26          4.721         -6.315         -125.8          82.86         -169.8          69.55          133.3
     0.405              -31.21          6.239          31.94          66.25           4.71         -6.316         -125.6          82.84         -169.7          69.58          133.3
    0.4289              -31.23          6.252          31.94          66.25          4.698         -6.316         -125.5          82.82         -169.6          69.61          133.3
    0.4527              -31.24          6.266          31.95          66.24          4.685         -6.317         -125.3           82.8         -169.5          69.64          133.4
    0.4765              -31.26          6.281          31.96          66.23          4.671         -6.318         -125.2          82.77         -169.3          69.68          133.4
